<svg width="60" height="60" viewBox="0 0 60 60" fill="none" xmlns="http://www.w3.org/2000/svg">
<path d="M13 9H13.5V8.5V5.5C13.5 5.36739 13.5527 5.24022 13.6464 5.14645C13.7402 5.05268 13.8674 5 14 5H26H26.5V4.5C26.5 3.57174 26.8687 2.6815 27.5251 2.02513C28.1815 1.36875 29.0717 1 30 1C30.9283 1 31.8185 1.36875 32.4749 2.02513C33.1313 2.6815 33.5 3.57174 33.5 4.5V5H34H46C46.1326 5 46.2598 5.05268 46.3536 5.14645C46.4473 5.24021 46.5 5.36739 46.5 5.5V8.5V9H47H55C55.1326 9 55.2598 9.05268 55.3536 9.14645C55.4473 9.24021 55.5 9.36739 55.5 9.5V45.5C55.5 45.6326 55.4473 45.7598 55.3536 45.8536C55.2598 45.9473 55.1326 46 55 46H47H46.5V46.5V49.5C46.5 49.6326 46.4473 49.7598 46.3536 49.8536C46.2598 49.9473 46.1326 50 46 50H31H30.5V50.5V52.946V53.2234L30.7353 53.3702L37.8412 57.8036L37.3106 58.6547L31.265 54.876L30.5 54.3978V55.3V59H29.5V55.3V54.3969L28.7346 54.8762L22.6892 58.6623L22.1586 57.8113L29.265 53.37L29.5 53.2231V52.946V50.5V50H29H14C13.8674 50 13.7402 49.9473 13.6464 49.8536C13.5527 49.7598 13.5 49.6326 13.5 49.5V46.5V46H13H5C4.86739 46 4.74021 45.9473 4.64645 45.8536C4.55268 45.7598 4.5 45.6326 4.5 45.5V9.5C4.5 9.36739 4.55268 9.24022 4.64645 9.14645C4.74022 9.05268 4.86739 9 5 9H13ZM45 49H45.5V48.5V46.5V46H45H15H14.5V46.5V48.5V49H15H45ZM54 45H54.5V44.5V10.5V10H54H6H5.5V10.5V44.5V45H6H54ZM32 5H32.5V4.5C32.5 3.83696 32.2366 3.20107 31.7678 2.73223C31.2989 2.26339 30.663 2 30 2C29.337 2 28.7011 2.26339 28.2322 2.73223C27.7634 3.20107 27.5 3.83696 27.5 4.5V5H28H32ZM15 6H14.5V6.5V8.5V9H15H45H45.5V8.5V6.5V6H45H15Z" stroke="white"/>
<path d="M12.5 18V17H13.5V18H12.5Z" stroke="white"/>
<path d="M49.5 18V17H50.5V18H49.5Z" stroke="white"/>
<path d="M45.5 18V17H46.5V18H45.5Z" stroke="white"/>
<path d="M16.5 18V17H32.5V18H16.5Z" stroke="white"/>
<path d="M16.5 22V21H32.5V22H16.5Z" stroke="white"/>
<path d="M16.5 32V31H32.5V32H16.5Z" stroke="white"/>
<path d="M16.5 36V35H32.5V36H16.5Z" stroke="white"/>
<path d="M16.5 40V39H32.5V40H16.5Z" stroke="white"/>
<path d="M0.5 34V13H1.5V34H0.5Z" stroke="white"/>
<path d="M0.5 38V37H1.5V38H0.5Z" stroke="white"/>
<path d="M58.5 43V26H59.5V43H58.5Z" stroke="white"/>
</svg>
