<svg width="62" height="63" viewBox="0 0 62 63" fill="none" xmlns="http://www.w3.org/2000/svg">
<path d="M62 4.5V2.5C62 1.397 61.103 0.5 60 0.5H2C0.897 0.5 0 1.397 0 2.5V4.5C0 5.603 0.897 6.5 2 6.5V30.5C0.897 30.5 0 31.397 0 32.5V60.5C0 61.603 0.897 62.5 2 62.5H20C21.103 62.5 22 61.603 22 60.5V50.5H52V58.5C52 60.706 53.794 62.5 56 62.5H58C60.206 62.5 62 60.706 62 58.5V31.319L60 25.984V6.5C61.103 6.5 62 5.603 62 4.5ZM2 2.5H60L60.001 4.5H2V2.5ZM2 60.5V32.5H20L20.002 60.5H2ZM28 14.905V28.912L21.976 32.259C21.855 31.27 21.02 30.5 20 30.5H17.974L28 14.905ZM44.006 36.693L30 28.912V14.905L44.006 36.693ZM22 34.532L29 30.644L43.141 38.5H22V34.532ZM58.058 26.5H55.943L56.585 24.789C56.716 24.443 57.286 24.443 57.417 24.789L58.058 26.5ZM55.193 28.5H58.808L59.558 30.5H54.444L55.193 28.5ZM54 52.5H60V54.5H54V52.5ZM58 50.5V32.5H60V50.5H58ZM54 32.5H56V50.5H54V32.5ZM58 60.5H56C54.897 60.5 54 59.603 54 58.5V56.5H60V58.5C60 59.603 59.103 60.5 58 60.5ZM58 22.721C57.69 22.581 57.352 22.5 57 22.5C55.988 22.5 55.069 23.137 54.712 24.085L52 31.319V48.5H22V40.5H48.832L39.277 25.637L44.414 20.5H54V18.5H43.586L38.17 23.916L29 9.651L21.395 21.481L16.414 16.5H6V18.5H15.586L20.288 23.202L15.597 30.5H4V6.5H58V22.721Z" fill="white"/>
</svg>
