<svg width="54" height="61" viewBox="0 0 54 61" fill="none" xmlns="http://www.w3.org/2000/svg">
<path d="M7.816 2.5C7.60992 1.91709 7.22877 1.41209 6.7247 1.05409C6.22063 0.696084 5.61826 0.502563 5 0.5H3C2.20435 0.5 1.44129 0.816071 0.87868 1.37868C0.316071 1.94129 0 2.70435 0 3.5V55.5C0.00158786 56.8256 0.528882 58.0964 1.46622 59.0338C2.40356 59.9711 3.67441 60.4984 5 60.5H50V34.5H54V26.5H50V24.5H54V16.5H50V14.5H54V6.5H50V2.5H7.816ZM2 3.5C2 3.23478 2.10536 2.98043 2.29289 2.79289C2.48043 2.60536 2.73478 2.5 3 2.5H5C5.26522 2.5 5.51957 2.60536 5.70711 2.79289C5.89464 2.98043 6 3.23478 6 3.5V42.5H2V3.5ZM15 58.5V52.5H19V58.5H15ZM48 50.5H39V52.5H48V54.5H21V52.5H30V50.5H8V52.5H13V54.5H7C6.73478 54.5 6.48043 54.3946 6.29289 54.2071C6.10536 54.0196 6 53.7652 6 53.5V49.5C6 49.2348 6.10536 48.9804 6.29289 48.7929C6.48043 48.6054 6.73478 48.5 7 48.5H48V50.5ZM48 58.5H21V56.5H48V58.5ZM48 46.5H7C6.20435 46.5 5.44129 46.8161 4.87868 47.3787C4.31607 47.9413 4 48.7043 4 49.5V53.5C4 54.2957 4.31607 55.0587 4.87868 55.6213C5.44129 56.1839 6.20435 56.5 7 56.5H13V58.5H5C4.20435 58.5 3.44129 58.1839 2.87868 57.6213C2.31607 57.0587 2 56.2957 2 55.5V44.5H48V46.5ZM52 28.5V32.5H50V28.5H52ZM52 18.5V22.5H50V18.5H52ZM48 42.5H8V4.5H48V42.5ZM52 8.5V12.5H50V8.5H52Z" fill="black" fill-opacity="0.56"/>
</svg>
