<svg width="70" height="80" viewBox="0 0 70 80" fill="none" xmlns="http://www.w3.org/2000/svg">
<path d="M67.8108 0.769287H1.61054C0.93383 0.769287 0.384613 1.3185 0.384613 1.99522V9.3508C0.384613 10.0275 0.932604 10.5767 1.61054 10.5767H2.83647V57.1621C2.83647 57.8388 3.38446 58.388 4.0624 58.388H20.0547L14.104 74.2601C13.7595 75.1796 13.7938 76.1787 14.1996 77.0736C14.6066 77.9673 15.3373 78.6502 16.2567 78.9947C16.6723 79.1504 17.1063 79.2301 17.5489 79.2301C19.0727 79.2301 20.4568 78.2714 20.9937 76.8432L27.9129 58.388H41.5084L48.4301 76.8432C48.967 78.2714 50.3499 79.2301 51.8749 79.2301C52.3163 79.2301 52.7515 79.1504 53.1658 78.9959C54.0865 78.6514 54.8172 77.9686 55.2242 77.0749C55.6299 76.1812 55.6643 75.182 55.3198 74.2614L49.3667 58.388H65.3589C66.0369 58.388 66.5849 57.8388 66.5849 57.1621V10.5767H67.8108C68.4887 10.5767 69.0367 10.0275 69.0367 9.3508V1.99522C69.0367 1.3185 68.4887 0.769287 67.8108 0.769287ZM18.6963 75.9813C18.4671 76.5943 17.7426 76.9339 17.1173 76.6985C16.4848 76.4619 16.1636 75.7533 16.4002 75.1207L22.6745 58.388H25.2943L18.6963 75.9813ZM53.0224 75.1207C53.259 75.7533 52.9378 76.4619 52.304 76.6997C51.6824 76.9314 50.9555 76.5943 50.7262 75.9826L44.1283 58.388H46.7481L53.0224 75.1207ZM5.28833 55.9362V10.5767H64.133V13.0286H40.8403C40.1624 13.0286 39.6144 13.5778 39.6144 14.2545C39.6144 14.9312 40.1624 15.4805 40.8403 15.4805H64.133V17.9323H58.0033C57.3254 17.9323 56.7774 18.4815 56.7774 19.1582C56.7774 19.835 57.3254 20.3842 58.0033 20.3842H64.133V55.9362H5.28833ZM66.5849 8.12487H2.83647V3.22115H66.5849V8.12487Z" fill="white"/>
</svg>
