<svg width="52" height="60" viewBox="0 0 52 60" fill="none" xmlns="http://www.w3.org/2000/svg">
<path d="M9 9H9.5V8.5V5.5C9.5 5.36739 9.55268 5.24022 9.64645 5.14645C9.74022 5.05268 9.86739 5 10 5H22H22.5V4.5C22.5 3.57174 22.8687 2.6815 23.5251 2.02513C24.1815 1.36875 25.0717 1 26 1C26.9283 1 27.8185 1.36875 28.4749 2.02513C29.1313 2.6815 29.5 3.57174 29.5 4.5V5H30H42C42.1326 5 42.2598 5.05268 42.3536 5.14645C42.4473 5.24021 42.5 5.36739 42.5 5.5V8.5V9H43H51C51.1326 9 51.2598 9.05268 51.3536 9.14645C51.4473 9.24021 51.5 9.36739 51.5 9.5V45.5C51.5 45.6326 51.4473 45.7598 51.3536 45.8536C51.2598 45.9473 51.1326 46 51 46H43H42.5V46.5V49.5C42.5 49.6326 42.4473 49.7598 42.3536 49.8536C42.2598 49.9473 42.1326 50 42 50H27H26.5V50.5V52.946V53.2234L26.7353 53.3702L33.8412 57.8036L33.3106 58.6547L27.265 54.876L26.5 54.3978V55.3V59H25.5V55.3V54.3969L24.7346 54.8762L18.6892 58.6623L18.1586 57.8113L25.265 53.37L25.5 53.2231V52.946V50.5V50H25H10C9.86739 50 9.74021 49.9473 9.64645 49.8536C9.55268 49.7598 9.5 49.6326 9.5 49.5V46.5V46H9H1C0.867389 46 0.740214 45.9473 0.646448 45.8536C0.552678 45.7598 0.5 45.6326 0.5 45.5V9.5C0.5 9.36739 0.552678 9.24022 0.646447 9.14645C0.740215 9.05268 0.867392 9 1 9H9ZM41 49H41.5V48.5V46.5V46H41H11H10.5V46.5V48.5V49H11H41ZM50 45H50.5V44.5V10.5V10H50H2H1.5V10.5V44.5V45H2H50ZM28 5H28.5V4.5C28.5 3.83696 28.2366 3.20107 27.7678 2.73223C27.2989 2.26339 26.663 2 26 2C25.337 2 24.7011 2.26339 24.2322 2.73223C23.7634 3.20107 23.5 3.83696 23.5 4.5V5H24H28ZM11 6H10.5V6.5V8.5V9H11H41H41.5V8.5V6.5V6H41H11Z" stroke="black" stroke-opacity="0.56"/>
</svg>
