<svg width="100" height="100" viewBox="0 0 100 100" fill="none" xmlns="http://www.w3.org/2000/svg">
<path d="M16.85 84H31.5924C32.0624 84 32.4424 83.6192 32.4424 83.15V16.85C32.4424 16.3808 32.0624 16 31.5924 16H16.85C16.3799 16 16 16.3808 16 16.85V83.15C16 83.6192 16.3799 84 16.85 84ZM30.7424 17.7V82.3H17.7V75.97H21.3261C21.7961 75.97 22.1761 75.5892 22.1761 75.12C22.1761 74.6508 21.7961 74.27 21.3261 74.27H17.7V67.5176H21.3261C21.7961 67.5176 22.1761 67.1368 22.1761 66.6676C22.1761 66.1984 21.7961 65.8176 21.3261 65.8176H17.7V59.0652H21.3261C21.7961 59.0652 22.1761 58.6844 22.1761 58.2152C22.1761 57.746 21.7961 57.3652 21.3261 57.3652H17.7V50.612H21.3261C21.7961 50.612 22.1761 50.2312 22.1761 49.762C22.1761 49.2928 21.7961 48.912 21.3261 48.912H17.7V42.1596H21.3261C21.7961 42.1596 22.1761 41.7788 22.1761 41.3096C22.1761 40.8404 21.7961 40.4596 21.3261 40.4596H17.7V33.7072H21.3261C21.7961 33.7072 22.1761 33.3264 22.1761 32.8572C22.1761 32.388 21.7961 32.0072 21.3261 32.0072H17.7V25.2548H21.3261C21.7961 25.2548 22.1761 24.874 22.1761 24.4048C22.1761 23.9356 21.7961 23.5548 21.3261 23.5548H17.7V17.7H30.7424Z" fill="white"/>
<path d="M57.3712 84C57.8413 84 58.2212 83.6192 58.2212 83.15V16.85C58.2212 16.3808 57.8413 16 57.3712 16H42.6288C42.1588 16 41.7788 16.3808 41.7788 16.85V83.15C41.7788 83.6192 42.1588 84 42.6288 84H57.3712ZM56.5212 17.7V82.3H43.4788V75.97H47.1049C47.575 75.97 47.9549 75.5892 47.9549 75.12C47.9549 74.6508 47.575 74.27 47.1049 74.27H43.4788V67.5176H47.1049C47.575 67.5176 47.9549 67.1368 47.9549 66.6676C47.9549 66.1984 47.575 65.8176 47.1049 65.8176H43.4788V59.0652H47.1049C47.575 59.0652 47.9549 58.6844 47.9549 58.2152C47.9549 57.746 47.575 57.3652 47.1049 57.3652H43.4788V50.612H47.1049C47.575 50.612 47.9549 50.2312 47.9549 49.762C47.9549 49.2928 47.575 48.912 47.1049 48.912H43.4788V42.1596H47.1049C47.575 42.1596 47.9549 41.7788 47.9549 41.3096C47.9549 40.8404 47.575 40.4596 47.1049 40.4596H43.4788V33.7072H47.1049C47.575 33.7072 47.9549 33.3264 47.9549 32.8572C47.9549 32.388 47.575 32.0072 47.1049 32.0072H43.4788V25.2548H47.1049C47.575 25.2548 47.9549 24.874 47.9549 24.4048C47.9549 23.9356 47.575 23.5548 47.1049 23.5548H43.4788V17.7H56.5212Z" fill="white"/>
<path d="M83.15 16H68.4076C67.9376 16 67.5576 16.3808 67.5576 16.85V83.15C67.5576 83.6192 67.9376 84 68.4076 84H83.15C83.6201 84 84 83.6192 84 83.15V16.85C84 16.3808 83.6201 16 83.15 16ZM82.3 82.3H69.2576V75.97H72.8837C73.3538 75.97 73.7337 75.5892 73.7337 75.12C73.7337 74.6508 73.3538 74.27 72.8837 74.27H69.2576V67.5176H72.8837C73.3538 67.5176 73.7337 67.1368 73.7337 66.6676C73.7337 66.1984 73.3538 65.8176 72.8837 65.8176H69.2576V59.0652H72.8837C73.3538 59.0652 73.7337 58.6844 73.7337 58.2152C73.7337 57.746 73.3538 57.3652 72.8837 57.3652H69.2576V50.612H72.8837C73.3538 50.612 73.7337 50.2312 73.7337 49.762C73.7337 49.2928 73.3538 48.912 72.8837 48.912H69.2576V42.1596H72.8837C73.3538 42.1596 73.7337 41.7788 73.7337 41.3096C73.7337 40.8404 73.3538 40.4596 72.8837 40.4596H69.2576V33.7072H72.8837C73.3538 33.7072 73.7337 33.3264 73.7337 32.8572C73.7337 32.388 73.3538 32.0072 72.8837 32.0072H69.2576V25.2548H72.8837C73.3538 25.2548 73.7337 24.874 73.7337 24.4048C73.7337 23.9356 73.3538 23.5548 72.8837 23.5548H69.2576V17.7H82.3V82.3Z" fill="white"/>
</svg>
