<svg width="67" height="57" viewBox="0 0 67 57" fill="none" xmlns="http://www.w3.org/2000/svg">
<path d="M0 8.635H9.621V11.065C7.802 11.417 6.422 13.017 6.422 14.938C6.422 16.858 7.802 18.459 9.621 18.81V27.302C7.802 27.654 6.422 29.254 6.422 31.175C6.422 33.095 7.802 34.695 9.621 35.046V35.46C7.802 35.812 6.422 37.412 6.422 39.333C6.422 41.253 7.802 42.853 9.621 43.204V47.973H0V56.608H66.5V47.973H56.879V42.344C58.698 41.992 60.078 40.392 60.078 38.472C60.078 36.552 58.698 34.951 56.879 34.6V34.226C58.698 33.874 60.078 32.274 60.078 30.354C60.078 28.434 58.698 26.833 56.879 26.482V26.107C58.698 25.755 60.078 24.156 60.078 22.236C60.078 20.316 58.698 18.715 56.879 18.364V8.635H66.5V0H0V8.635ZM7.922 14.938C7.922 13.85 8.639 12.938 9.621 12.619C9.858 12.542 10.108 12.489 10.371 12.489C10.634 12.489 10.884 12.542 11.121 12.619C12.102 12.938 12.819 13.851 12.819 14.938C12.819 16.024 12.102 16.937 11.121 17.256C10.884 17.333 10.634 17.386 10.371 17.386C10.108 17.386 9.858 17.333 9.621 17.256C8.639 16.938 7.922 16.025 7.922 14.938ZM55.379 26.107V26.482C53.56 26.834 52.181 28.434 52.181 30.354C52.181 32.274 53.56 33.875 55.379 34.226V34.6C53.56 34.952 52.181 36.552 52.181 38.472C52.181 40.392 53.56 41.993 55.379 42.344V47.973H41.625V46.404C43.444 46.052 44.825 44.452 44.825 42.532C44.825 40.611 43.444 39.011 41.625 38.659V35.047C43.444 34.695 44.825 33.096 44.825 31.176C44.825 29.255 43.444 27.655 41.625 27.303V26.929C43.444 26.577 44.825 24.977 44.825 23.057C44.825 21.137 43.444 19.536 41.625 19.185V18.811C43.444 18.459 44.825 16.859 44.825 14.939C44.825 13.018 43.444 11.418 41.625 11.066V8.636H55.379V18.365C53.56 18.717 52.181 20.317 52.181 22.237C52.181 24.157 53.56 25.755 55.379 26.107ZM40.875 28.726C41.138 28.726 41.388 28.779 41.625 28.856C42.607 29.174 43.325 30.088 43.325 31.175C43.325 32.262 42.607 33.174 41.625 33.492C41.388 33.569 41.138 33.622 40.875 33.622C40.611 33.622 40.362 33.569 40.125 33.492C39.144 33.174 38.428 32.261 38.428 31.175C38.428 30.088 39.144 29.175 40.125 28.856C40.362 28.779 40.611 28.726 40.875 28.726ZM40.125 25.374C39.144 25.055 38.428 24.142 38.428 23.056C38.428 21.97 39.144 21.057 40.125 20.738C40.362 20.661 40.611 20.608 40.875 20.608C41.138 20.608 41.388 20.661 41.625 20.738C42.607 21.056 43.325 21.969 43.325 23.056C43.325 24.143 42.607 25.056 41.625 25.374C41.388 25.451 41.138 25.504 40.875 25.504C40.611 25.504 40.362 25.451 40.125 25.374ZM40.875 40.082C41.138 40.082 41.388 40.135 41.625 40.212C42.607 40.53 43.325 41.443 43.325 42.531C43.325 43.618 42.607 44.531 41.625 44.849C41.388 44.926 41.138 44.979 40.875 44.979C40.611 44.979 40.362 44.926 40.125 44.849C39.144 44.53 38.428 43.617 38.428 42.531C38.428 41.444 39.144 40.531 40.125 40.212C40.362 40.135 40.611 40.082 40.875 40.082ZM43.325 14.938C43.325 16.025 42.607 16.938 41.625 17.256C41.388 17.333 41.138 17.386 40.875 17.386C40.611 17.386 40.362 17.333 40.125 17.256C39.144 16.937 38.428 16.024 38.428 14.938C38.428 13.851 39.144 12.938 40.125 12.619C40.362 12.542 40.611 12.489 40.875 12.489C41.138 12.489 41.388 12.542 41.625 12.619C42.607 12.937 43.325 13.85 43.325 14.938ZM40.125 11.065C38.307 11.417 36.928 13.017 36.928 14.938C36.928 16.858 38.307 18.459 40.125 18.81V19.184C38.307 19.536 36.928 21.136 36.928 23.056C36.928 24.976 38.307 26.577 40.125 26.928V27.302C38.307 27.654 36.928 29.254 36.928 31.175C36.928 33.095 38.307 34.695 40.125 35.046V38.658C38.307 39.01 36.928 40.61 36.928 42.531C36.928 44.451 38.307 46.052 40.125 46.403V47.972H26.375V45.542C28.193 45.19 29.572 43.59 29.572 41.669C29.572 39.749 28.193 38.148 26.375 37.797V37.424C28.193 37.072 29.572 35.472 29.572 33.552C29.572 31.632 28.193 30.031 26.375 29.68V29.306C28.193 28.954 29.572 27.354 29.572 25.433C29.572 23.513 28.193 21.913 26.375 21.562V20.991C28.193 20.639 29.572 19.039 29.572 17.118C29.572 15.198 28.193 13.597 26.375 13.246V8.636H40.125V11.065ZM25.625 31.104C25.888 31.104 26.138 31.157 26.375 31.234C27.356 31.553 28.072 32.465 28.072 33.552C28.072 34.639 27.356 35.551 26.375 35.87C26.138 35.947 25.888 36 25.625 36C25.362 36 25.112 35.947 24.875 35.87C23.893 35.552 23.175 34.639 23.175 33.552C23.175 32.465 23.893 31.552 24.875 31.234C25.112 31.157 25.362 31.104 25.625 31.104ZM24.875 27.752C23.893 27.434 23.175 26.52 23.175 25.433C23.175 24.346 23.893 23.434 24.875 23.116C25.112 23.039 25.362 22.986 25.625 22.986C25.888 22.986 26.138 23.039 26.375 23.116C27.356 23.434 28.072 24.346 28.072 25.433C28.072 26.52 27.356 27.433 26.375 27.752C26.138 27.829 25.888 27.882 25.625 27.882C25.362 27.882 25.112 27.829 24.875 27.752ZM25.625 39.222C25.888 39.222 26.138 39.275 26.375 39.352C27.356 39.671 28.072 40.584 28.072 41.67C28.072 42.757 27.356 43.67 26.375 43.989C26.138 44.066 25.888 44.119 25.625 44.119C25.362 44.119 25.112 44.066 24.875 43.989C23.893 43.671 23.175 42.758 23.175 41.67C23.175 40.583 23.893 39.67 24.875 39.352C25.112 39.275 25.362 39.222 25.625 39.222ZM28.072 17.117C28.072 18.204 27.356 19.117 26.375 19.436C26.138 19.513 25.888 19.566 25.625 19.566C25.362 19.566 25.112 19.513 24.875 19.436C23.893 19.118 23.175 18.205 23.175 17.117C23.175 16.03 23.893 15.117 24.875 14.799C25.112 14.722 25.362 14.669 25.625 14.669C25.888 14.669 26.138 14.722 26.375 14.799C27.356 15.118 28.072 16.032 28.072 17.117ZM24.875 13.245C23.056 13.597 21.675 15.197 21.675 17.117C21.675 19.038 23.056 20.638 24.875 20.99V21.561C23.056 21.913 21.675 23.512 21.675 25.432C21.675 27.353 23.056 28.953 24.875 29.305V29.679C23.056 30.031 21.675 31.631 21.675 33.551C21.675 35.471 23.056 37.072 24.875 37.423V37.797C23.056 38.149 21.675 39.749 21.675 41.669C21.675 43.59 23.056 45.19 24.875 45.542V47.972H11.121V43.204C12.94 42.852 14.319 41.253 14.319 39.333C14.319 37.412 12.94 35.812 11.121 35.46V35.046C12.94 34.694 14.319 33.095 14.319 31.175C14.319 29.254 12.94 27.654 11.121 27.302V18.81C12.94 18.458 14.319 16.858 14.319 14.938C14.319 13.017 12.94 11.417 11.121 11.065V8.635H24.875V13.245ZM7.922 31.175C7.922 30.088 8.639 29.174 9.621 28.856C9.858 28.779 10.108 28.726 10.371 28.726C10.634 28.726 10.884 28.779 11.121 28.856C12.102 29.175 12.819 30.088 12.819 31.175C12.819 32.262 12.102 33.174 11.121 33.492C10.884 33.569 10.634 33.622 10.371 33.622C10.108 33.622 9.858 33.569 9.621 33.492C8.639 33.174 7.922 32.262 7.922 31.175ZM7.922 39.333C7.922 38.246 8.639 37.332 9.621 37.014C9.858 36.937 10.108 36.884 10.371 36.884C10.634 36.884 10.884 36.937 11.121 37.014C12.102 37.333 12.819 38.246 12.819 39.333C12.819 40.42 12.102 41.332 11.121 41.65C10.884 41.727 10.634 41.78 10.371 41.78C10.108 41.78 9.858 41.727 9.621 41.65C8.639 41.332 7.922 40.42 7.922 39.333ZM65 49.473V55.108H1.5V49.473H65ZM58.578 38.472C58.578 39.559 57.861 40.471 56.879 40.79C56.642 40.867 56.392 40.92 56.129 40.92C55.866 40.92 55.616 40.867 55.379 40.79C54.398 40.471 53.681 39.559 53.681 38.472C53.681 37.385 54.398 36.473 55.379 36.154C55.616 36.077 55.866 36.024 56.129 36.024C56.392 36.024 56.642 36.077 56.879 36.154C57.861 36.473 58.578 37.385 58.578 38.472ZM58.578 30.354C58.578 31.441 57.861 32.354 56.879 32.672C56.642 32.749 56.392 32.802 56.129 32.802C55.866 32.802 55.616 32.749 55.379 32.672C54.398 32.353 53.681 31.44 53.681 30.354C53.681 29.268 54.398 28.355 55.379 28.036C55.616 27.959 55.866 27.906 56.129 27.906C56.392 27.906 56.642 27.959 56.879 28.036C57.861 28.354 58.578 29.267 58.578 30.354ZM58.578 22.236C58.578 23.323 57.861 24.235 56.879 24.553C56.642 24.63 56.392 24.683 56.129 24.683C55.866 24.683 55.616 24.63 55.379 24.553C54.398 24.235 53.681 23.323 53.681 22.236C53.681 21.149 54.398 20.237 55.379 19.918C55.616 19.841 55.866 19.788 56.129 19.788C56.392 19.788 56.642 19.841 56.879 19.918C57.861 20.237 58.578 21.149 58.578 22.236ZM1.5 1.5H65V7.135H1.5V1.5Z" fill="white"/>
</svg>
