<svg viewBox="85.0611 269.629 1122.2906 248.7417" width="5000" height="1108.1875763728217" xmlns="http://www.w3.org/2000/svg" xmlns:xlink="http://www.w3.org/1999/xlink" preserveAspectRatio="none"><defs></defs><style>.aLgOaV3zRcolors-0 {fill:#161616;fill-opacity:1;}.ayDg2iHN1b0filter-floo {flood-color:#161616;flood-opacity:1;}.companyName {fill:#161616;fill-opacity:1;}.companyName-floo {flood-color:#161616;flood-opacity:1;}</style><defs>
      <filter
        x="-1000"
        y="-1000"
        width="5000"
        height="5000"
        id="-925IyyYe"
        filterUnits="userSpaceOnUse"
        primitiveUnits="userSpaceOnUse"
        color-interpolation-filters="sRGB">
        <feMerge><feMergeNode in="SourceGraphic" /></feMerge>
      </filter>
      <filter
        x="-1000"
        y="-1000"
        width="5000"
        height="5000"
        id="yDg2iHN1b"
        filterUnits="userSpaceOnUse"
        primitiveUnits="userSpaceOnUse"
        color-interpolation-filters="sRGB">
        
    <feGaussianBlur in="SourceGraphic" stdDeviation="0"/>
    <feOffset dx="1" dy="1" result="v5zZNXQ8c7"/>
    <feFlood flood-color="#161616" flood-opacity="1" in="v5zZNXQ8c7" />
    <feComposite  in2="v5zZNXQ8c7" operator="in" result="SuxUz3--th"/><feMerge result="EPM-2sLFDJ"><feMergeNode in="SuxUz3--th" /><feMergeNode in="SourceGraphic" /></feMerge>
      </filter></defs><g opacity="1" transform="rotate(0 345.7444 335.9141)">
<svg width="861.6073" height="115.1714" x="345.7444" y="335.9141" version="1.1" preserveAspectRatio="none" viewBox="2.16 -32.12 244.48 32.68">
  <g transform="matrix(1 0 0 1 0 0)" class="companyName"><path d="M20.88-27.52L21.84-21.80L23.60-21.80L23.32-29.04L2.16-29.04L2.16-27.80L6.44-27.40C6.48-23.52 6.48-19.60 6.48-15.64L6.48-13.40C6.48-9.48 6.48-5.52 6.44-1.68L2.16-1.28L2.16 0L13.96 0L13.96-1.28L9.52-1.68C9.44-5.56 9.44-9.52 9.44-14.04L16.88-14.04L17.44-9.60L18.88-9.60L18.88-19.72L17.44-19.72L16.92-15.48L9.44-15.48C9.44-19.72 9.44-23.68 9.52-27.52Z M32.84-1.60C32.80-3.96 32.76-6.76 32.76-9.08L32.76-25.64L32.88-31.80L32.28-32.12L26.40-30.76L26.40-29.56L30.08-29.36L30.08-9.08C30.08-6.76 30.04-3.96 30-1.60L26.16-1.16L26.16 0L36.56 0L36.56-1.16Z M58.12-1.60L58.12-14.20L58.28-20.20L57.84-20.68L52.24-20.20L52.24-19.04L55.56-18.56L55.48-5.16C53.40-2.88 51.12-1.68 48.76-1.68C46.08-1.68 44.68-3.20 44.68-7.60L44.68-14.20L44.88-20.20L44.48-20.68L38.80-20.20L38.80-19.04L42.16-18.56L42.04-7.36C42.00-1.48 44.04 0.56 47.72 0.56C50.68 0.56 53.36-1.04 55.52-3.72L55.76 0.32L61.28 0L61.28-1.16Z M67.76-11.84C68.16-16.80 71.12-19.60 74.36-19.60C77.68-19.60 79.80-16.88 79.80-13.92C79.80-12.60 79.40-11.80 77.92-11.80ZM82.16-10.48C82.36-11.08 82.44-11.88 82.44-12.88C82.44-17.68 79.24-21 74.52-21C69.36-21 64.88-16.76 64.88-10.16C64.88-3.16 69.08 0.56 74.52 0.56C77.96 0.56 80.76-1.12 82.36-3.84L81.60-4.40C80-2.56 78.08-1.44 75.24-1.44C71.04-1.44 67.80-4.28 67.72-10.48Z M106.04-1.60C106.00-3.80 105.96-6.92 105.96-9.08L105.96-13.32C105.96-18.84 104.08-21 100.56-21C97.92-21 94.96-19.52 92.44-16.76L92.16-20.52L91.64-20.92L86.08-19.16L86.08-18L89.76-17.76C89.84-15.84 89.88-13.88 89.88-11.24L89.88-9.08C89.88-7 89.84-3.80 89.80-1.60L86.28-1.16L86.28 0L95.80 0L95.80-1.16L92.60-1.60C92.56-3.80 92.52-7 92.52-9.08L92.52-15.32C95.28-18 97.52-18.80 99.44-18.80C102.00-18.80 103.32-17.40 103.32-13.24L103.32-9.08C103.32-6.92 103.28-3.80 103.24-1.60L99.76-1.16L99.76 0L109.24 0L109.24-1.16Z M123.56-2.16C122.44-1.44 121.64-1.08 120.48-1.08C118.76-1.08 117.80-2.12 117.80-4.64L117.80-18.80L123.84-18.80L123.84-20.44L117.84-20.44L118.04-26.56L116.08-26.56L115.24-20.52L111.08-20.16L111.08-18.80L115.16-18.80L115.16-7.84C115.16-6.36 115.12-5.48 115.12-4.56C115.04-1.12 116.60 0.56 119.72 0.56C121.64 0.56 123.20-0.08 124.24-1.24Z M134.24-1.48C134.20-5.40 134.20-9.48 134.20-14.36L137.12-14.36C143.52-14.36 146.28-12.08 146.28-7.88C146.28-3.76 143.36-1.48 137.88-1.48ZM137.60-27.60C142.76-27.60 145-25.72 145-22C145-18 142.32-15.84 136.84-15.84L134.20-15.84C134.20-19.92 134.20-23.80 134.24-27.60ZM126.92-29.04L126.92-27.80L131.20-27.40C131.24-23.52 131.24-19.60 131.24-15.68L131.24-13.44C131.24-9.48 131.24-5.56 131.20-1.68L126.92-1.28L126.92 0L138.44 0C146.12 0 149.32-3.72 149.32-7.84C149.32-11.56 146.88-14.52 140.96-15.20C145.80-16.16 147.84-18.96 147.84-22.08C147.84-26.24 144.68-29.04 138.56-29.04Z M159-20.52L158.48-20.92L152.92-19.16L152.92-18L156.60-17.76C156.68-15.84 156.72-13.88 156.72-11.24L156.72-9.08C156.72-7 156.68-3.80 156.64-1.60L153.16-1.16L153.16 0L163.20 0L163.20-1.16L159.44-1.60C159.40-3.84 159.36-7 159.36-9.08L159.36-12.80C160.48-15.84 161.92-17.76 164-18.84L164.52-18.44C165.32-17.68 166-17.24 166.96-17.24C168.40-17.24 169-18.08 169-19.60C168.56-20.44 167.36-21 166-21C163.36-21 160.72-18.76 159.36-15.24Z M183.48-4.60C180.92-2.32 179.56-1.52 177.68-1.52C175.40-1.52 173.84-2.68 173.84-5.12C173.84-6.88 174.84-8.56 178.56-10.04C179.88-10.52 181.76-11.08 183.48-11.48ZM189.72-2.08C189.12-1.48 188.60-1.16 187.96-1.16C186.76-1.16 186.12-1.96 186.12-4.48L186.12-14C186.12-19.04 183.96-21 179.56-21C175.44-21 172.48-19.12 171.64-15.84C171.72-15 172.28-14.48 173.20-14.48C174.12-14.48 174.68-15 174.96-16.08L175.80-18.96C176.92-19.40 177.96-19.60 178.96-19.60C182.08-19.60 183.48-18.48 183.48-14L183.48-12.68C181.64-12.28 179.64-11.76 177.96-11.20C172.76-9.40 171.08-7.44 171.08-4.68C171.08-1.24 173.56 0.56 176.64 0.56C179.40 0.56 181.04-0.64 183.56-3.24C183.84-0.92 185.04 0.48 187.08 0.48C188.36 0.48 189.44-0.04 190.36-1.36Z M197.36-26.72C198.60-26.72 199.64-27.60 199.64-28.88C199.64-30.24 198.60-31.08 197.36-31.08C196.12-31.08 195.12-30.24 195.12-28.88C195.12-27.60 196.12-26.72 197.36-26.72ZM198.92-1.60C198.88-3.80 198.84-7 198.84-9.08L198.84-15.04L198.92-20.52L198.40-20.92L192.40-19.20L192.40-18.04L196.12-17.76C196.20-15.64 196.24-13.80 196.24-11.28L196.24-9.08C196.24-7 196.20-3.80 196.16-1.60L192.60-1.16L192.60 0L202.12 0L202.12-1.16Z M225.36-1.60C225.32-3.80 225.28-6.92 225.28-9.08L225.28-13.32C225.28-18.84 223.40-21 219.88-21C217.24-21 214.28-19.52 211.76-16.76L211.48-20.52L210.96-20.92L205.40-19.16L205.40-18L209.08-17.76C209.16-15.84 209.20-13.88 209.20-11.24L209.20-9.08C209.20-7 209.16-3.80 209.12-1.60L205.60-1.16L205.60 0L215.12 0L215.12-1.16L211.92-1.60C211.88-3.80 211.84-7 211.84-9.08L211.84-15.32C214.60-18 216.84-18.80 218.76-18.80C221.32-18.80 222.64-17.40 222.64-13.24L222.64-9.08C222.64-6.92 222.60-3.80 222.56-1.60L219.08-1.16L219.08 0L228.56 0L228.56-1.16Z M239.28-11.96C236.36-13.04 235.16-14 235.16-16.04C235.16-18.08 236.64-19.60 239.72-19.60C240.92-19.60 242.12-19.28 243.32-18.60L243.96-15.04L245.56-15.04L245.68-19.24C243.76-20.40 242.12-21 239.76-21C235.16-21 232.60-18.44 232.60-15.28C232.60-12.36 234.68-10.72 237.84-9.56L239.80-8.84C242.92-7.72 244.08-6.64 244.08-4.72C244.08-2.48 242.32-0.88 238.72-0.88C237.08-0.88 235.80-1.16 234.72-1.68L233.88-5.52L232.20-5.52L232.32-0.96C234.44 0.04 236.28 0.56 238.68 0.56C244.04 0.56 246.64-2.20 246.64-5.36C246.64-8.04 245.08-9.84 241.00-11.36Z"/></g>
</svg>
</g><g filter="url(#yDg2iHN1b)"><g opacity="1" transform="rotate(0 85.0611 269.629)">
<svg width="216.5305" height="247.7417" x="85.0611" y="269.629" version="1.1" preserveAspectRatio="none" viewBox="8.599990844726562 0.5 111.00001525878906 127">
  <g transform="matrix(1 0 0 1 0 0)" class="aLgOaV3zRcolors-0"><g><path d="M19.3,33.5c0-0.4-0.3-0.8-0.8-0.8c-0.4,0-0.8,0.3-0.8,0.8V43c0,0.4,0.3,0.8,0.8,0.8c0.4,0,0.8-0.3,0.8-0.8V33.5z"></path><path d="M19.3,46.1c0-0.4-0.3-0.8-0.8-0.8c-0.4,0-0.8,0.3-0.8,0.8v3c0,0.4,0.3,0.8,0.8,0.8c0.4,0,0.8-0.3,0.8-0.8V46.1z"></path><path d="M109.3,81.3c0-0.4-0.3-0.8-0.8-0.8c-0.4,0-0.8,0.3-0.8,0.8v9.4c0,0.4,0.3,0.8,0.8,0.8c0.4,0,0.8-0.3,0.8-0.8V81.3z"></path><path d="M108.6,97.6c0.4,0,0.8-0.3,0.8-0.8v-3c0-0.4-0.3-0.8-0.8-0.8c-0.4,0-0.8,0.3-0.8,0.8v3C107.8,97.3,108.2,97.6,108.6,97.6z"></path><path d="M14.9,81.5l-1.3-1.3c-0.3-0.3-0.8-0.3-1.1,0c-0.3,0.3-0.3,0.8,0,1.1l1.3,1.3c0.1,0.1,0.3,0.2,0.5,0.2   c0.2,0,0.4-0.1,0.5-0.2C15.2,82.2,15.2,81.8,14.9,81.5z"></path><path d="M17.8,84.4c-0.3-0.3-0.8-0.3-1.1,0c-0.3,0.3-0.3,0.8,0,1.1l1.3,1.3c0.1,0.1,0.3,0.2,0.5,0.2c0.2,0,0.4-0.1,0.5-0.2   c0.3-0.3,0.3-0.8,0-1.1L17.8,84.4z"></path><path d="M13.9,84.4l-1.3,1.3c-0.3,0.3-0.3,0.8,0,1.1c0.1,0.1,0.3,0.2,0.5,0.2c0.2,0,0.4-0.1,0.5-0.2l1.3-1.3c0.3-0.3,0.3-0.8,0-1.1   C14.7,84.1,14.2,84.1,13.9,84.4z"></path><path d="M19.1,80.2c-0.3-0.3-0.8-0.3-1.1,0l-1.3,1.3c-0.3,0.3-0.3,0.8,0,1.1c0.1,0.1,0.3,0.2,0.5,0.2c0.2,0,0.4-0.1,0.5-0.2   l1.3-1.3C19.4,81,19.4,80.5,19.1,80.2z"></path><path d="M105.4,34.8l-1.3-1.3c-0.3-0.3-0.8-0.3-1.1,0c-0.3,0.3-0.3,0.8,0,1.1l1.3,1.3c0.1,0.1,0.3,0.2,0.5,0.2   c0.2,0,0.4-0.1,0.5-0.2C105.7,35.6,105.7,35.1,105.4,34.8z"></path><path d="M109,40.3c0.2,0,0.4-0.1,0.5-0.2c0.3-0.3,0.3-0.8,0-1.1l-1.3-1.3c-0.3-0.3-0.8-0.3-1.1,0c-0.3,0.3-0.3,0.8,0,1.1l1.3,1.3   C108.6,40.2,108.8,40.3,109,40.3z"></path><path d="M104.3,37.7L103,39c-0.3,0.3-0.3,0.8,0,1.1c0.1,0.1,0.3,0.2,0.5,0.2c0.2,0,0.4-0.1,0.5-0.2l1.3-1.3c0.3-0.3,0.3-0.8,0-1.1   C105.1,37.4,104.6,37.4,104.3,37.7z"></path><path d="M108.5,33.5l-1.3,1.3c-0.3,0.3-0.3,0.8,0,1.1c0.1,0.1,0.3,0.2,0.5,0.2c0.2,0,0.4-0.1,0.5-0.2l1.3-1.3   c0.3-0.3,0.3-0.8,0-1.1C109.3,33.3,108.8,33.3,108.5,33.5z"></path><path d="M96.4,116c-0.3-0.3-0.8-0.3-1.1,0c-0.3,0.3-0.3,0.8,0,1.1l1.3,1.3c0.1,0.1,0.3,0.2,0.5,0.2c0.2,0,0.4-0.1,0.5-0.2   c0.3-0.3,0.3-0.8,0-1.1L96.4,116z"></path><path d="M100.6,120.2c-0.3-0.3-0.8-0.3-1.1,0c-0.3,0.3-0.3,0.8,0,1.1l1.3,1.3c0.1,0.1,0.3,0.2,0.5,0.2c0.2,0,0.4-0.1,0.5-0.2   c0.3-0.3,0.3-0.8,0-1.1L100.6,120.2z"></path><path d="M96.6,120.2l-1.3,1.3c-0.3,0.3-0.3,0.8,0,1.1c0.1,0.1,0.3,0.2,0.5,0.2c0.2,0,0.4-0.1,0.5-0.2l1.3-1.3   c0.3-0.3,0.3-0.8,0-1.1C97.4,119.9,96.9,119.9,96.6,120.2z"></path><path d="M100.8,116l-1.3,1.3c-0.3,0.3-0.3,0.8,0,1.1c0.1,0.1,0.3,0.2,0.5,0.2c0.2,0,0.4-0.1,0.5-0.2l1.3-1.3c0.3-0.3,0.3-0.8,0-1.1   C101.6,115.7,101.1,115.7,100.8,116z"></path><path d="M15.9,18.8c2.2,0,4-1.8,4-4c0-2.2-1.8-4-4-4c-2.2,0-4,1.8-4,4C11.9,17.1,13.7,18.8,15.9,18.8z M15.9,12.4   c1.4,0,2.5,1.1,2.5,2.5c0,1.4-1.1,2.5-2.5,2.5c-1.4,0-2.5-1.1-2.5-2.5C13.4,13.5,14.5,12.4,15.9,12.4z"></path><path d="M116.1,67.2c0-2.2-1.8-4-4-4s-4,1.8-4,4s1.8,4,4,4S116.1,69.4,116.1,67.2z M109.6,67.2c0-1.4,1.1-2.5,2.5-2.5   c1.4,0,2.5,1.1,2.5,2.5c0,1.4-1.1,2.5-2.5,2.5C110.8,69.7,109.6,68.6,109.6,67.2z"></path><path d="M101.9,17.4h10.2c0.4,0,0.8-0.3,0.8-0.8c0-0.4-0.3-0.8-0.8-0.8h-10.2c-0.4,0-0.8,0.3-0.8,0.8   C101.2,17.1,101.5,17.4,101.9,17.4z"></path><path d="M115.5,17.4h3.3c0.4,0,0.8-0.3,0.8-0.8c0-0.4-0.3-0.8-0.8-0.8h-3.3c-0.4,0-0.8,0.3-0.8,0.8C114.7,17.1,115,17.4,115.5,17.4   z"></path><path d="M118.8,19.4h-7.1c-0.4,0-0.8,0.3-0.8,0.8c0,0.4,0.3,0.8,0.8,0.8h7.1c0.4,0,0.8-0.3,0.8-0.8   C119.5,19.8,119.2,19.4,118.8,19.4z"></path><path d="M106.3,20.9h2.3c0.4,0,0.8-0.3,0.8-0.8c0-0.4-0.3-0.8-0.8-0.8h-2.3c-0.4,0-0.8,0.3-0.8,0.8   C105.5,20.6,105.9,20.9,106.3,20.9z"></path><path d="M27,122H16.8c-0.4,0-0.8,0.3-0.8,0.8c0,0.4,0.3,0.8,0.8,0.8H27c0.4,0,0.8-0.3,0.8-0.8C27.8,122.4,27.4,122,27,122z"></path><path d="M13.5,122h-3.3c-0.4,0-0.8,0.3-0.8,0.8c0,0.4,0.3,0.8,0.8,0.8h3.3c0.4,0,0.8-0.3,0.8-0.8C14.2,122.4,13.9,122,13.5,122z"></path><path d="M10.2,120h7.1c0.4,0,0.8-0.3,0.8-0.8c0-0.4-0.3-0.8-0.8-0.8h-7.1c-0.4,0-0.8,0.3-0.8,0.8C9.4,119.7,9.8,120,10.2,120z"></path><path d="M22.6,120c0.4,0,0.8-0.3,0.8-0.8c0-0.4-0.3-0.8-0.8-0.8h-2.3c-0.4,0-0.8,0.3-0.8,0.8c0,0.4,0.3,0.8,0.8,0.8H22.6z"></path><path d="M79.9,114.8c-6.9,7.3-14.2,11.2-17.5,11.2s-10.5-3.9-17.5-11.2c-0.3-0.3-0.8-0.3-1.1,0c-0.3,0.3-0.3,0.8,0,1.1   c7.3,7.6,14.9,11.6,18.6,11.6s11.3-4,18.6-11.6c0.3-0.3,0.3-0.8,0-1.1C80.6,114.5,80.2,114.5,79.9,114.8z"></path><path d="M50,97.1c0.1,0.2,0.4,0.3,0.6,0.3c0.2,0,0.3,0,0.4-0.1c0.3-0.2,0.4-0.7,0.2-1.1c-1.2-1.6-2.2-3.3-3.1-5   c-0.2-0.4-0.7-0.5-1-0.3c-0.4,0.2-0.5,0.7-0.3,1C47.7,93.6,48.7,95.4,50,97.1z"></path><path d="M43.1,77.5c-0.4,0-0.7,0.4-0.7,0.8c0.3,2.9,1,5.9,2.1,8.8c0.1,0.3,0.4,0.5,0.7,0.5c0.1,0,0.2,0,0.3,0   c0.4-0.1,0.6-0.6,0.4-1c-1.1-2.8-1.7-5.6-2-8.4C43.9,77.7,43.5,77.4,43.1,77.5z"></path><path d="M43.1,73.8c0,0,0.1,0,0.1,0c0.4,0,0.7-0.3,0.7-0.6c0.3-1.8,0.9-3.6,1.9-5.5c0.2-0.4,0-0.8-0.3-1c-0.4-0.2-0.8,0-1,0.3   c-1,2-1.7,4-2,5.9C42.4,73.3,42.7,73.7,43.1,73.8z"></path><path d="M80.6,73.2c0.1,0.4,0.4,0.6,0.7,0.6c0,0,0.1,0,0.1,0c0.4-0.1,0.7-0.5,0.6-0.9c-0.3-1.9-1-3.9-2-5.9c-0.2-0.4-0.6-0.5-1-0.3   c-0.4,0.2-0.5,0.6-0.3,1C79.7,69.5,80.4,71.4,80.6,73.2z"></path><path d="M79.1,87.7c0.1,0,0.2,0,0.3,0c0.3,0,0.6-0.2,0.7-0.5c1.1-3,1.8-6,2.1-8.9c0-0.4-0.3-0.8-0.7-0.8c-0.4,0-0.8,0.3-0.8,0.7   c-0.3,2.8-0.9,5.7-2,8.5C78.5,87.1,78.7,87.5,79.1,87.7z"></path><path d="M74,97.6c0.2,0,0.5-0.1,0.6-0.3c1.2-1.7,2.3-3.4,3.2-5.2c0.2-0.4,0.1-0.8-0.3-1c-0.4-0.2-0.8-0.1-1,0.3   c-0.9,1.7-2,3.4-3.1,5c-0.2,0.3-0.2,0.8,0.2,1.1C73.7,97.6,73.9,97.6,74,97.6z"></path><path d="M79.9,49.3c2.4,0,4.3-1.9,4.3-4.3c0-2.4-1.9-4.3-4.3-4.3c-2.4,0-4.3,1.9-4.3,4.3C75.5,47.3,77.5,49.3,79.9,49.3z    M79.9,42.1c1.6,0,2.8,1.3,2.8,2.8s-1.3,2.8-2.8,2.8c-1.6,0-2.8-1.3-2.8-2.8S78.3,42.1,79.9,42.1z"></path><path d="M44.7,40.6c-2.4,0-4.3,1.9-4.3,4.3c0,2.4,1.9,4.3,4.3,4.3c2.4,0,4.3-1.9,4.3-4.3C49.1,42.5,47.1,40.6,44.7,40.6z    M44.7,47.8c-1.6,0-2.8-1.3-2.8-2.8s1.3-2.8,2.8-2.8s2.8,1.3,2.8,2.8S46.3,47.8,44.7,47.8z"></path><path d="M115.7,104.7l-10.1-4.5c-0.2-0.1-0.3-0.1-0.5,0c0,0-0.1,0-0.1,0H93.6c-0.7-3.4-2.2-5.7-4.2-5.7c-1.6,0-2.9,1.5-3.7,3.9   c-0.3-0.9-0.7-1.7-1.1-2.3c4-7.5,6.1-15.3,6.1-23c0-3.8-1-7.6-2.9-11.5c2.5-1.2,4.7-2.9,6.4-5.2c2.2,4.6,3.4,9.2,3.4,13.7   c0,8.5-1.6,16.8-4.6,24.4c-0.2,0.4,0,0.8,0.4,1c0.1,0,0.2,0.1,0.3,0.1c0.3,0,0.6-0.2,0.7-0.5c3.2-7.9,4.8-16.3,4.8-25   c0-4.9-1.3-10-3.9-15.1c1.9-3,2.9-6.4,2.9-9.9c0-7.2-4.1-13.6-10.6-16.6c3.4-4.2,6.4-8.6,9.1-13c0,0,0,0,0,0   c0.8-1.3,0.7-2.9-0.2-4.1c-0.9-1.2-2.5-1.8-4.1-1.4c-3.5,0.9-7,1.7-10.5,2.2C81.6,5.7,72.9,0.5,62.3,0.5   c-10.7,0-19.4,5.2-19.6,11.7c-3.5-0.6-7-1.3-10.4-2.2c-1.5-0.4-3.1,0.1-4.1,1.4c-0.9,1.2-1,2.7-0.2,4.1c2.6,4.4,5.7,8.8,9.1,13   c-6.5,3-10.6,9.4-10.6,16.6c0,3.6,1.1,7.1,3,10.1c-2.5,5.1-3.8,10.1-3.8,14.9c0,8.7,1.6,17.1,4.8,25c0.1,0.3,0.4,0.5,0.7,0.5   c0.1,0,0.2,0,0.3-0.1c0.4-0.2,0.6-0.6,0.4-1c-3.1-7.7-4.6-15.9-4.6-24.4c0-4.4,1.1-8.9,3.3-13.5c1.7,2.1,3.9,3.8,6.3,5   c-1.9,3.9-2.9,7.7-2.9,11.5c0,7.7,2.1,15.5,6.3,23.1c-0.4,0.6-0.8,1.4-1.1,2.2c-0.8-2.4-2.1-3.9-3.7-3.9c-1.9,0-3.5,2.3-4.2,5.7   h-8.7h-9.2c-2.7,0-4.8,2.2-4.8,4.8v0.9c0,2.7,2.2,4.8,4.8,4.8h4c0,0,0,0,0,0c0,0,0,0,0,0h5.1h9.8c0.8,1.6,1.9,2.5,3.1,2.5   c0.4,0,0.8-0.3,0.8-0.8c0-0.4-0.3-0.8-0.8-0.8c-1.4,0-3-3.4-3-7.8c0-4.5,1.6-7.8,3-7.8c1.2,0,2.6,2.6,2.9,6.3c0,0.5-0.1,1-0.1,1.5   c0,5.3,1.9,9.3,4.5,9.3c0.4,0,0.8-0.3,0.8-0.8c0-0.4-0.3-0.8-0.8-0.8c-0.5,0-0.9-0.4-1.4-1h9.7c4.5,4.5,9.2,7.8,11.2,7.8   c2.2,0,6.9-3.2,11.4-7.8h9.7c-0.4,0.6-0.9,1-1.4,1c-0.4,0-0.8,0.3-0.8,0.8c0,0.4,0.3,0.8,0.8,0.8c2.6,0,4.5-4,4.5-9.3   c0-0.5,0-1-0.1-1.5c0.3-3.7,1.7-6.3,2.9-6.3c1.4,0,3,3.4,3,7.8c0,4.5-1.6,7.8-3,7.8c-0.4,0-0.8,0.3-0.8,0.8c0,0.4,0.3,0.8,0.8,0.8   c1.2,0,2.3-0.9,3.1-2.5H105c0,0,0.1,0,0.1,0c0.1,0,0.1,0,0.2,0c0.1,0,0.2,0,0.3-0.1l10.1-4.5c0.3-0.1,0.4-0.4,0.4-0.7   C116.1,105.1,115.9,104.9,115.7,104.7z M21.7,109.2h-3.6v-7.5h3.6V109.2z M10,105.9V105c0-1.8,1.5-3.3,3.3-3.3h3.3v7.5h-3.3   C11.5,109.2,10,107.7,10,105.9z M23.2,109.2v-7.5H31c-0.1,0.7-0.1,1.4-0.1,2.1c0,2,0.3,3.8,0.8,5.3H23.2z M84.7,100.2h-5.2   c0.6-2.7,1.7-4.2,2.6-4.2C83.1,96,84.1,97.6,84.7,100.2z M96.6,45.1c0,3.4-1,6.7-3,9.5c-3.1,4.6-8.3,7.3-13.8,7.3   c-5.2,0-10-2.3-13.2-6.4c0.1-0.2,0.1-0.4,0.2-0.6c0.1-0.2,0.1-0.4,0.2-0.6c0.1-0.3,0.1-0.6,0.2-0.9c0-0.2,0.1-0.4,0.1-0.6   c0.1-0.3,0.1-0.6,0.1-1c0-0.2,0-0.3,0.1-0.5c0-0.5,0.1-0.9,0.1-1.4c0-0.3,0-0.7,0-1c0,0,0-0.1,0-0.1c0.1-0.1,0.1-0.1,0.2-0.2   c0.7-0.6,1.5-1.2,2.2-1.8c0.9,4.7,5,8.2,10,8.2c5.6,0,10.2-4.6,10.2-10.2c0-4.8-3.4-8.9-8-9.9c0.4-0.4,0.8-0.9,1.2-1.3   c0.1-0.1,0.2-0.3,0.3-0.4c1-1.1,1.9-2.3,2.9-3.4c0-0.1,0.1-0.1,0.1-0.2C92.7,32.4,96.6,38.3,96.6,45.1z M65.9,51.4   c-0.1,1.3-0.4,2.7-0.8,4c-0.8,2.7-2.1,4.8-2.8,5.9c-0.7-1.1-2-3.2-2.8-5.9c-0.6-1.9-0.9-3.7-0.9-5.5c0-0.5,0-0.9,0.1-1.4   c0.2-2.5,1-4.9,1.8-6.7c0.5-1.1,1-2,1.4-2.6c0.2-0.3,0.3-0.5,0.5-0.7c0.1,0.2,0.3,0.5,0.5,0.7c0.2,0.3,0.3,0.5,0.5,0.8   c0.2,0.3,0.3,0.6,0.5,1c0,0,0,0,0,0c0.8,1.7,1.6,3.7,2,6c0.1,0.5,0.1,0.9,0.2,1.4c0,0,0,0,0,0c0,0,0,0,0,0c0,0.4,0.1,0.9,0.1,1.4   C66,50.4,66,50.9,65.9,51.4z M72.4,44.6c0.3-0.3,0.7-0.6,1-0.9c0.1-0.1,0.2-0.2,0.3-0.3c0.3-0.2,0.5-0.5,0.8-0.7   c0.1-0.1,0.2-0.1,0.2-0.2c0.3-0.3,0.6-0.6,1-0.9c0.3-0.3,0.6-0.6,0.9-0.9c0.3-0.3,0.5-0.5,0.8-0.8c0.2-0.2,0.4-0.3,0.5-0.5   c0.7-0.7,1.4-1.5,2.1-2.2l0,0c0,0,0,0,0,0c0,0,0,0,0,0c0.3-0.3,0.5-0.6,0.8-0.9c4.3,0.5,7.7,4.2,7.7,8.6c0,4.8-3.9,8.7-8.7,8.7   c-4.5,0-8.3-3.4-8.6-7.9C71.6,45.3,72,45,72.4,44.6z M62.3,2c10,0,18.1,4.7,18.1,10.5c0,0,0,0,0,0c-1.2,0.2-2.4,0.4-3.6,0.5   c-2.5-4.4-8.1-7.2-14.5-7.2c-6.3,0-12,2.9-14.4,7.2c-1.2-0.1-2.4-0.3-3.6-0.5C44.2,6.7,52.3,2,62.3,2z M75.1,13.2   c-8.5,0.9-17.1,0.9-25.6,0c2.4-3.5,7.3-5.9,12.8-5.9C67.7,7.3,72.7,9.6,75.1,13.2z M29.4,12.3c0.4-0.6,1.1-0.9,1.9-0.9   c0.2,0,0.4,0,0.6,0.1c5.3,1.4,10.7,2.4,16.1,3.1c0.1,0,0.1,0,0.2,0c0,0,0,0,0.1,0c14.8,1.7,29.9,0.7,44.4-3.1   c0.9-0.3,1.9,0.1,2.5,0.8c0.5,0.7,0.6,1.6,0.1,2.4c-2.8,4.6-6,9.2-9.5,13.6l0,0c0,0,0,0,0,0c-0.8,1.1-1.7,2.1-2.6,3.1   c-0.1,0.2-0.3,0.3-0.4,0.5c-0.9,1-1.8,2.1-2.7,3c-0.3,0.3-0.5,0.6-0.8,0.9c-0.1,0.1-0.2,0.2-0.3,0.3c0,0,0,0-0.1,0.1   c-0.9,0.9-1.7,1.8-2.6,2.7c-0.3,0.3-0.6,0.6-0.9,0.8c-0.7,0.7-1.4,1.3-2,2c-0.3,0.3-0.5,0.5-0.8,0.8c-0.9,0.9-1.9,1.7-2.8,2.6   c-0.2,0.2-0.5,0.4-0.7,0.6c-0.6,0.5-1.2,1-1.7,1.5c0,0,0,0,0-0.1c0-0.1-0.1-0.3-0.1-0.4c-0.1-0.3-0.1-0.6-0.2-1   c0-0.2-0.1-0.3-0.1-0.5c-0.1-0.3-0.1-0.5-0.2-0.8c-0.1-0.2-0.1-0.3-0.2-0.5c-0.1-0.2-0.2-0.5-0.3-0.7c0-0.1-0.1-0.2-0.1-0.3   c0.8-0.7,1.7-1.4,2.5-2.1c2.3-2,4.5-4.1,6.5-6.3c0.3-0.3,0.5-0.5,0.8-0.8c1.4-1.5,2.8-3.1,4.2-4.8c2.6-3.2,4.9-6.5,6.9-9.9   c0.2-0.4,0.1-0.8-0.3-1c-0.4-0.2-0.8-0.1-1,0.3c-2,3.3-4.3,6.6-6.8,9.7c-1.3,1.7-2.7,3.3-4.1,4.8c-0.2,0.3-0.5,0.5-0.7,0.8   c-2,2.1-4.1,4.2-6.4,6.2c-0.7,0.6-1.4,1.2-2.1,1.8c-0.1-0.2-0.2-0.4-0.3-0.5c-0.1-0.1-0.1-0.3-0.2-0.4c-0.1-0.2-0.2-0.4-0.3-0.7   c-0.1-0.1-0.1-0.2-0.2-0.3c-0.2-0.3-0.3-0.6-0.5-0.9c-0.7-1.1-1.1-1.7-1.2-1.7c-0.3-0.4-0.9-0.4-1.2,0c0,0-0.5,0.7-1.2,1.7   c-0.1,0.2-0.3,0.5-0.4,0.7c0,0.1-0.1,0.2-0.2,0.3c-0.1,0.2-0.2,0.4-0.3,0.6c-0.1,0.1-0.1,0.3-0.2,0.4c-0.1,0.2-0.2,0.4-0.3,0.6   c0,0,0,0.1-0.1,0.1c-0.7-0.6-1.4-1.2-2.1-1.8c-2.3-2-4.4-4.1-6.4-6.2c-0.3-0.3-0.5-0.5-0.7-0.8c-1.4-1.5-2.7-3.1-4.1-4.8   c-2.5-3.2-4.8-6.4-6.8-9.7c-0.2-0.4-0.7-0.5-1-0.3c-0.4,0.2-0.5,0.7-0.3,1c2,3.3,4.3,6.7,6.9,9.9c1.4,1.7,2.8,3.3,4.2,4.8   c0.3,0.3,0.5,0.5,0.8,0.8c2,2.1,4.2,4.2,6.5,6.3c0.8,0.7,1.7,1.4,2.5,2.1c0,0,0,0,0,0.1c-0.1,0.2-0.2,0.5-0.3,0.7   c-0.1,0.2-0.1,0.4-0.2,0.6c-0.1,0.3-0.2,0.5-0.2,0.8c-0.1,0.2-0.1,0.4-0.2,0.6c-0.1,0.3-0.1,0.6-0.2,0.9c0,0.2-0.1,0.4-0.1,0.6   c0,0,0,0.1,0,0.1c-0.1-0.1-0.2-0.2-0.3-0.2c-0.8-0.7-1.6-1.4-2.4-2c-3.2-2.8-6.2-5.7-9-8.7c-0.4-0.4-0.7-0.7-1-1.1l-0.2-0.3h0   c-1.9-2-3.7-4.1-5.6-6.4l0,0c-3.6-4.4-6.8-9-9.5-13.6C28.8,13.9,28.9,13,29.4,12.3z M53.4,45.7c-0.4,4.5-4.1,7.9-8.6,7.9   c-4.8,0-8.7-3.9-8.7-8.7c0-4.4,3.3-8.1,7.7-8.6c0.3,0.3,0.5,0.6,0.8,0.9c0.7,0.7,1.4,1.5,2.1,2.2c0.3,0.3,0.5,0.5,0.8,0.8   c0.5,0.5,0.9,0.9,1.4,1.4c0.3,0.3,0.7,0.6,1,0.9c0.4,0.4,0.9,0.8,1.3,1.2c0.3,0.3,0.7,0.6,1,0.9C52.6,45,53,45.3,53.4,45.7z    M31.1,54.8c0-0.2-0.1-0.3-0.3-0.4c-1.9-2.8-2.8-6-2.8-9.3c0-6.7,3.9-12.7,10-15.4c0.2,0.3,0.4,0.5,0.6,0.8   c0.2,0.2,0.4,0.5,0.6,0.7c0.3,0.3,0.6,0.7,0.9,1c0.2,0.2,0.4,0.4,0.5,0.6c0.3,0.4,0.7,0.7,1,1.1c0.1,0.2,0.3,0.3,0.4,0.5   c0.2,0.2,0.3,0.4,0.5,0.5c-4.6,1-8,5.1-8,9.9c0,5.6,4.6,10.2,10.2,10.2c5,0,9.1-3.5,10-8.2c0.2,0.2,0.5,0.4,0.7,0.6   c0.2,0.2,0.4,0.3,0.6,0.5c0.4,0.3,0.7,0.6,1.1,0.9c0,0,0,0.1,0,0.1c0,0.3,0,0.6,0,1c0,0.5,0,0.9,0.1,1.4c0,0.2,0,0.3,0.1,0.5   c0,0.3,0.1,0.6,0.1,1c0,0.2,0.1,0.4,0.1,0.6c0.1,0.3,0.1,0.6,0.2,0.9c0,0.2,0.1,0.4,0.2,0.6c0.1,0.2,0.1,0.4,0.2,0.7   c-3.2,4.1-8,6.4-13.2,6.4C39.3,61.9,34.3,59.2,31.1,54.8z M38.2,62.1c2.1,0.8,4.3,1.2,6.6,1.2c5.3,0,10.3-2.3,13.7-6.2   c1.3,3.5,3.1,5.8,3.2,5.9c0.1,0.2,0.4,0.3,0.6,0.3s0.4-0.1,0.6-0.3c0.1-0.1,1.9-2.4,3.2-5.9c3.5,4,8.4,6.2,13.7,6.2   c2.3,0,4.5-0.4,6.6-1.2c1.9,3.7,2.8,7.4,2.8,10.9c0,7.3-1.9,14.7-5.7,21.9c-0.4-0.3-0.9-0.5-1.4-0.5c-1.9,0-3.5,2.2-4.1,5.7H46.9   c-0.7-3.5-2.2-5.7-4.1-5.7c-0.5,0-1,0.2-1.5,0.5c-3.9-7.2-5.9-14.6-5.9-21.9C35.4,69.5,36.3,65.8,38.2,62.1z M42.7,96   c0.9,0,2,1.4,2.6,4.2h-5.2C40.7,97.6,41.7,96,42.7,96z M62.3,116.9c-1.1,0-4.7-2.2-9-6.3h9.2h9.2C67.1,114.9,63.4,116.9,62.3,116.9   z M62.4,109.2H40.6c-0.5-1.3-0.8-3-0.9-5c0.1-0.1,0.1-0.2,0.1-0.4c0-0.5,0-1-0.1-1.5c0-0.2,0-0.4,0.1-0.6h45.1c0,0.2,0,0.4,0.1,0.6   c0,0.5-0.1,1-0.1,1.5c0,0.1,0,0.3,0.1,0.4c0,2-0.4,3.7-0.9,5H62.4z M104.2,109.2H93.2c0.5-1.5,0.8-3.3,0.8-5.3c0-0.7,0-1.5-0.1-2.1   h10.4V109.2z M105.7,108.9V102l7.8,3.5L105.7,108.9z"></path><path d="M79.7,104.7H45.1c-0.4,0-0.8,0.3-0.8,0.8c0,0.4,0.3,0.8,0.8,0.8h34.6c0.4,0,0.8-0.3,0.8-0.8   C80.5,105,80.1,104.7,79.7,104.7z"></path></g></g>
</svg>
</g></g></svg>