<svg width="62" height="63" viewBox="0 0 62 63" fill="none" xmlns="http://www.w3.org/2000/svg">
<path d="M61.474 56.294L54.872 44.41L53.124 45.382L59.726 57.265C59.905 57.589 60 57.955 60 58.323C60 59.523 59.023 60.5 57.823 60.5H36.177C34.977 60.5 34 59.523 34 58.323C34 57.954 34.095 57.589 34.274 57.266L44 39.759V30.5H48V34.5C48 36.154 49.346 37.5 51 37.5C51.351 37.5 51.687 37.439 52 37.329V39.5C52 41.154 53.346 42.5 55 42.5C56.654 42.5 58 41.154 58 39.5V23.5C58 20.743 55.757 18.5 53 18.5C52.183 18.5 51.376 18.709 50.652 19.102C49.718 18.084 48.412 17.5 47 17.5C44.243 17.5 42 19.743 42 22.5C42 23.212 42.154 23.886 42.424 24.5H40V30.5H42V39.241L32.526 56.295C32.182 56.914 32 57.615 32 58.323C32 60.626 33.874 62.5 36.177 62.5H57.823C60.126 62.5 62 60.626 62 58.323C62 57.615 61.818 56.914 61.474 56.294ZM42 26.5H44V26.474C44.838 27.109 45.87 27.5 47 27.5V25.5C45.346 25.5 44 24.154 44 22.5C44 20.846 45.346 19.5 47 19.5C48.056 19.5 49.016 20.051 49.566 20.975L50.171 21.99L51.072 21.226C51.461 20.894 52.113 20.5 53 20.5C54.654 20.5 56 21.846 56 23.5V39.5C56 40.051 55.551 40.5 55 40.5C54.449 40.5 54 40.051 54 39.5V34.5V30.5H52V34.5C52 35.051 51.551 35.5 51 35.5C50.449 35.5 50 35.051 50 34.5V26.5H48V28.5H42V26.5Z" fill="black" fill-opacity="0.56"/>
<path d="M44 7.5V15.5H46V7.5C46 5.846 44.654 4.5 43 4.5H36V6.5H43C43.551 6.5 44 6.949 44 7.5Z" fill="black" fill-opacity="0.56"/>
<path d="M2 59.5V7.5C2 6.949 2.449 6.5 3 6.5H10V4.5H3C1.346 4.5 0 5.846 0 7.5V59.5C0 61.154 1.346 62.5 3 62.5H30V60.5H3C2.449 60.5 2 60.051 2 59.5Z" fill="black" fill-opacity="0.56"/>
<path d="M6 10.5H10V8.5H4V58.5H30V56.5H6V10.5Z" fill="black" fill-opacity="0.56"/>
<path d="M40 17.5H42V8.5H36V10.5H40V17.5Z" fill="black" fill-opacity="0.56"/>
<path d="M17 33.5H11V35.5H17V33.5Z" fill="black" fill-opacity="0.56"/>
<path d="M21 33.5H19V35.5H21V33.5Z" fill="black" fill-opacity="0.56"/>
<path d="M21 37.5H11V39.5H21V37.5Z" fill="black" fill-opacity="0.56"/>
<path d="M21 41.5H11V43.5H21V41.5Z" fill="black" fill-opacity="0.56"/>
<path d="M17 45.5H15V47.5H17V45.5Z" fill="black" fill-opacity="0.56"/>
<path d="M21 45.5H19V47.5H21V45.5Z" fill="black" fill-opacity="0.56"/>
<path d="M13 45.5H11V47.5H13V45.5Z" fill="black" fill-opacity="0.56"/>
<path d="M23 47.5H35V33.5H23V47.5ZM25 35.5H33V45.5H25V35.5Z" fill="black" fill-opacity="0.56"/>
<path d="M48 21.5H46V23.5H48V21.5Z" fill="black" fill-opacity="0.56"/>
<path d="M54 26.5H52V28.5H54V26.5Z" fill="black" fill-opacity="0.56"/>
<path d="M38.1041 56.052L37.1037 58.0527L38.8925 58.9471L39.8929 56.9464L38.1041 56.052Z" fill="black" fill-opacity="0.56"/>
<path d="M44.1037 44.0536L39.104 54.053L40.8928 54.9474L45.8925 44.948L44.1037 44.0536Z" fill="black" fill-opacity="0.56"/>
<path d="M34 2.5H29.829C29.416 1.336 28.304 0.5 27 0.5H19C17.696 0.5 16.584 1.336 16.171 2.5H12V12.5H34V2.5ZM32 10.5H14V4.5H18V3.5C18 2.949 18.449 2.5 19 2.5H27C27.551 2.5 28 2.949 28 3.5V4.5H32V10.5Z" fill="black" fill-opacity="0.56"/>
<path d="M17.389 25.706C16.841 24.978 15.979 24.5 15 24.5C13.346 24.5 12 25.846 12 27.5C12 29.154 13.346 30.5 15 30.5C16.615 30.5 17.927 29.215 17.988 27.614L28.61 24.295C29.159 25.022 30.021 25.5 31 25.5C32.654 25.5 34 24.154 34 22.5C34 20.846 32.654 19.5 31 19.5C30.021 19.5 29.159 19.978 28.611 20.705L17.989 17.386C17.927 15.786 16.615 14.5 15 14.5C13.346 14.5 12 15.846 12 17.5C12 19.154 13.346 20.5 15 20.5C15.979 20.5 16.842 20.022 17.389 19.294L27.647 22.5L17.389 25.706ZM15 28.5C14.449 28.5 14 28.051 14 27.5C14 26.949 14.449 26.5 15 26.5C15.551 26.5 16 26.949 16 27.5C16 28.051 15.551 28.5 15 28.5ZM31 21.5C31.551 21.5 32 21.949 32 22.5C32 23.051 31.551 23.5 31 23.5C30.449 23.5 30 23.051 30 22.5C30 21.949 30.449 21.5 31 21.5ZM15 18.5C14.449 18.5 14 18.051 14 17.5C14 16.949 14.449 16.5 15 16.5C15.551 16.5 16 16.949 16 17.5C16 18.051 15.551 18.5 15 18.5Z" fill="black" fill-opacity="0.56"/>
</svg>
