<svg width="70" height="80" viewBox="0 0 70 80" fill="none" xmlns="http://www.w3.org/2000/svg">
<path d="M68.3108 0.769287H2.11054C1.43383 0.769287 0.884613 1.3185 0.884613 1.99522V9.3508C0.884613 10.0275 1.4326 10.5767 2.11054 10.5767H3.33647V57.1621C3.33647 57.8388 3.88446 58.388 4.5624 58.388H20.5547L14.604 74.2601C14.2595 75.1796 14.2938 76.1787 14.6996 77.0736C15.1066 77.9673 15.8373 78.6502 16.7567 78.9947C17.1723 79.1504 17.6063 79.2301 18.0489 79.2301C19.5727 79.2301 20.9568 78.2714 21.4937 76.8432L28.4129 58.388H42.0084L48.9301 76.8432C49.467 78.2714 50.8499 79.2301 52.3749 79.2301C52.8163 79.2301 53.2515 79.1504 53.6658 78.9959C54.5865 78.6514 55.3172 77.9686 55.7242 77.0749C56.1299 76.1812 56.1643 75.182 55.8198 74.2614L49.8667 58.388H65.8589C66.5369 58.388 67.0849 57.8388 67.0849 57.1621V10.5767H68.3108C68.9887 10.5767 69.5367 10.0275 69.5367 9.3508V1.99522C69.5367 1.3185 68.9887 0.769287 68.3108 0.769287ZM19.1963 75.9813C18.9671 76.5943 18.2426 76.9339 17.6173 76.6985C16.9848 76.4619 16.6636 75.7533 16.9002 75.1207L23.1745 58.388H25.7943L19.1963 75.9813ZM53.5224 75.1207C53.759 75.7533 53.4378 76.4619 52.804 76.6997C52.1824 76.9314 51.4555 76.5943 51.2262 75.9826L44.6283 58.388H47.2481L53.5224 75.1207ZM5.78833 55.9362V10.5767H64.633V13.0286H41.3403C40.6624 13.0286 40.1144 13.5778 40.1144 14.2545C40.1144 14.9312 40.6624 15.4805 41.3403 15.4805H64.633V17.9323H58.5033C57.8254 17.9323 57.2774 18.4815 57.2774 19.1582C57.2774 19.835 57.8254 20.3842 58.5033 20.3842H64.633V55.9362H5.78833ZM67.0849 8.12487H3.33647V3.22115H67.0849V8.12487Z" fill="white"/>
</svg>
